<svg xmlns="http://www.w3.org/2000/svg" viewBox="0 0 120 28" fill="#071D49">
  <path d="M12.1 22.9h-3.5l-1.2-3.7H2.6l-1.2 3.7H0L5 9.1h2.1l5 13.8zm-5.2-5.5L5 12.1l-1.9 5.3h3.8zm14.6 5.5h-3.5l-1.2-3.7h-4.9l-1.2 3.7h-1.5l5-13.8h2.1l5.2 13.8zm-5.2-5.5l-1.9-5.3-1.9 5.3h3.8z"/>
  <path d="M26.8 9.1h4.7c3.4 0 5.5 1.6 5.5 4.2 0 1.7-.9 3-2.5 3.7 2 .6 3.2 2.1 3.2 4 0 3-2.3 4.7-5.9 4.7h-5V9.1zm4.5 7.1c2.5 0 3.8-1.1 3.8-3 0-1.8-1.3-2.9-3.8-2.9h-3v5.9h3zm.4 7.5c2.7 0 4.2-1.2 4.2-3.3 0-2.1-1.5-3.3-4.2-3.3h-3.4v6.5h3.4z"/>
  <path d="M44 22.9h-1.5V9.1h1.5v13.8zm6.8 0h-1.5V9.1h1.5v13.8z"/>
  <path d="M55.2 9.1h1.7l5.5 11.5 5.5-11.5h1.7v13.8h-1.5V12l-5.2 10.9h-1l-5.2-10.9v10.9h-1.5V9.1z"/>
  <path d="M77.6 9.1h9.3v1.3h-7.8v4.8h7.2v1.3h-7.2v5.1h8v1.3h-9.5V9.1z"/>
  <path d="M89.2 25.8c-.4-.4-.4-1.1 0-1.5s1.1-.4 1.5 0c.4.4.4 1.1 0 1.5s-1 .4-1.5 0z"/>
  <path d="M96.5 9.1c3.8 0 5.3 2 5.3 4.4 0 2.3-1.4 3.8-3.7 4.2l4.4 5.2h-1.9l-4.2-5.1h-2.5v5.1h-1.5V9.1h4.1zm-.2 7.5c2.5 0 3.9-1.2 3.9-3.2 0-2-1.4-3.1-3.9-3.1h-2.4v6.3h2.4z"/>
</svg>
