<?xml version="1.0" encoding="UTF-8"?>
<svg id="Layer_1" data-name="Layer 1" xmlns="http://www.w3.org/2000/svg" width="23.64" height="16.63" viewBox="0 0 23.64 16.63">
  <defs>
    <style>
      .cls-1 {
        fill: #071d49;
      }
    </style>
  </defs>
  <path class="cls-1" d="M23.41,3.59s-.23-1.63-.94-2.35c-.9-.94-1.91-.95-2.37-1-3.31-.24-8.27-.24-8.27-.24h0S6.85,0,3.55,.24c-.46,.06-1.47,.06-2.37,1C.47,1.96,.24,3.59,.24,3.59c0,0-.24,1.92-.24,3.83v1.79c0,1.91,.24,3.83,.24,3.83,0,0,.23,1.63,.94,2.35,.9,.94,2.08,.91,2.61,1.01,1.89,.18,8.04,.24,8.04,.24,0,0,4.97,0,8.28-.24,.46-.06,1.47-.06,2.37-1,.71-.72,.94-2.35,.94-2.35,0,0,.24-1.91,.24-3.83v-1.79c0-1.91-.24-3.83-.24-3.83Zm-14.03,7.79V4.74l6.39,3.33-6.39,3.31Z"/>
</svg>