<?xml version="1.0" encoding="UTF-8"?>
<svg id="Layer_1" data-name="Layer 1" xmlns="http://www.w3.org/2000/svg" viewBox="0 0 29.2 14">
  <defs>
    <style>
      .cls-1, .cls-2 {
        fill: #fff;
      }

      .cls-3, .cls-4 {
        fill: #071d49;
      }

      .cls-4, .cls-2 {
        fill-rule: evenodd;
      }
    </style>
  </defs>
  <g id="final---dec.11-2020">
    <g id="_0208-our-toggle" data-name="0208-our-toggle">
      <g id="Final-Copy-2">
        <path class="cls-2" d="m7,12.8h6.8l3.1-11.6H7c-3.2,0-5.8,2.6-5.8,5.8s2.6,5.8,5.8,5.8Z"/>
      </g>
    </g>
  </g>
  <g id="final---dec.11-2020-2" data-name="final---dec.11-2020">
    <g id="_0208-our-toggle-2" data-name="0208-our-toggle">
      <g id="Final-Copy-2-2" data-name="Final-Copy-2">
        <path class="cls-4" d="m22.2,0H7C3.1,0,0,3.1,0,7s3.1,7,7,7h15.2c3.9,0,7-3.1,7-7S26,0,22.2,0ZM1.2,7C1.2,3.8,3.8,1.2,7,1.2h9.9l-3.1,11.6h-6.8c-3.2,0-5.8-2.6-5.8-5.8Z"/>
        <path id="x" class="cls-1" d="m24.2,4c.2.2.2.6,0,.8h0l-2.1,2.2,2.2,2.2c.2.2.2.6,0,.8s-.6.2-.8,0h0l-2.2-2.2-2.2,2.2c-.2.2-.6.2-.8,0-.2-.2-.2-.6,0-.8h0l2.1-2.2-2.2-2.2c-.2-.2-.2-.6,0-.8.2-.2.6-.2.8,0h0l2.2,2.2,2.2-2.2c.2-.2.6-.2.8,0Z"/>
        <path id="y" class="cls-3" d="m12.3,4.1c.2.2.3.6.1.8h0l-4.2,4.9c-.1.1-.2.2-.3.2-.2.1-.5.1-.7-.1h0l-2.2-2.2c-.2-.2-.2-.6,0-.8.2-.2.6-.2.8,0h0l1.8,1.7,3.8-4.5c.2-.2.6-.2.9,0Z"/>
      </g>
    </g>
  </g>
</svg>